Coordinates
version=1
nRows=24
nColumns=24
inDegrees=yes

Units are S.I. units (second, meters, Newtons, ...)
Angles are in degrees.

endheader
time	pelvis_tilt	pelvis_list	pelvis_rotation	pelvis_tx	pelvis_ty	pelvis_tz	hip_flexion_r	hip_adduction_r	hip_rotation_r	knee_angle_r	ankle_angle_r	subtalar_angle_r	mtp_angle_r	hip_flexion_l	hip_adduction_l	hip_rotation_l	knee_angle_l	ankle_angle_l	subtalar_angle_l	mtp_angle_l	lumbar_extension	lumbar_bending	lumbar_rotation
      0.88516667	     -2.67656972	     -3.86500255	      3.81868178	     -0.39460679	      0.90321529	      0.36090261	     15.37093272	      9.32946625	     -5.05285249	    -23.06970461	     12.01709674	      1.31531840	      7.56257802	     13.13447834	     -8.62439271	     -3.23091838	    -65.73837695	      6.48384682	     -2.48774787	      3.89368606	     -2.14778034	      5.99438774	     -1.27740525
      0.88933333	     -2.64423656	     -3.77167321	      3.61430018	     -0.38981899	      0.90427642	      0.36144248	     14.70810116	      9.33429139	     -4.81745804	    -22.52534051	     12.05098481	      1.41412047	      7.61520025	     13.68967237	     -8.49582632	     -3.46952561	    -65.39220709	      6.89754635	     -2.48120367	      3.78463212	     -2.20676584	      5.90630895	     -0.96569380
      0.89350000	     -2.64067476	     -3.66661732	      3.38193096	     -0.38511323	      0.90523635	      0.36199857	     14.10461464	      9.31987746	     -4.57059545	    -22.02990449	     12.07768540	      1.56880717	      7.64554737	     14.27169508	     -8.35008728	     -3.72691341	    -65.02041159	      7.32179121	     -2.54625686	      3.72611751	     -2.26276543	      5.80258059	     -0.80769503
      0.89766667	     -2.57842373	     -3.56985356	      3.14943100	     -0.38034333	      0.90626709	      0.36258553	     13.40831768	      9.31996398	     -4.31408369	    -21.47773077	     12.11411630	      1.66868040	      7.69282378	     14.76579798	     -8.23995504	     -4.01288914	    -64.58422467	      7.69410088	     -2.54088528	      3.62826667	     -2.36277807	      5.70989072	     -0.48558199
      0.90183333	     -2.53640271	     -3.46781248	      2.89651107	     -0.37561966	      0.90721402	      0.36319325	     12.74856766	      9.31140203	     -4.03492984	    -20.95095153	     12.13490774	      1.78033529	      7.74038803	     15.27438118	     -8.12644208	     -4.31763739	    -64.11750813	      8.05526169	     -2.57004939	      3.52722821	     -2.45233171	      5.60643472	     -0.21578717
      0.90600000	     -2.51609592	     -3.35711680	      2.61696854	     -0.37093346	      0.90807630	      0.36381556	     12.13309396	      9.28529353	     -3.75446871	    -20.46219292	     12.14947002	      1.93585959	      7.76712288	     15.79440089	     -8.00874870	     -4.65220851	    -63.61453365	      8.40673268	     -2.64011536	      3.47341133	     -2.51938118	      5.49885149	     -0.04703732
      0.91016667	     -2.43709178	     -3.25568862	      2.35890500	     -0.36623353	      0.90899419	      0.36444870	     11.42496957	      9.27286698	     -3.45216355	    -19.91052470	     12.18541033	      2.03318732	      7.80689370	     16.24466152	     -7.91293804	     -4.97379386	    -63.06861102	      8.69513154	     -2.66150850	      3.38792699	     -2.67284743	      5.38338455	      0.28825480
      0.91433333	     -2.37122816	     -3.15659803	      2.08448775	     -0.36151557	      0.90984786	      0.36509459	     10.73829680	      9.25597271	     -3.16457309	    -19.37382935	     12.20088722	      2.12057622	      7.85428270	     16.69156596	     -7.83284855	     -5.33025627	    -62.48092999	      8.97091406	     -2.70160708	      3.28203955	     -2.77199433	      5.28112438	      0.61514183
      0.91850000	     -2.31183075	     -3.05195360	      1.79768887	     -0.35683763	      0.91064282	      0.36574548	     10.06859596	      9.22682054	     -2.85927707	    -18.85182329	     12.22394791	      2.23303652	      7.89981943	     17.13711822	     -7.74763525	     -5.69404307	    -61.85843363	      9.21927312	     -2.76270796	      3.18075576	     -2.88691124	      5.17019485	      0.89501297
      0.92266667	     -2.24693814	     -2.94897999	      1.50583449	     -0.35217286	      0.91139231	      0.36641112	      9.39732802	      9.19392300	     -2.55851977	    -18.33455917	     12.24503563	      2.34304236	      7.94605006	     17.56867033	     -7.67476099	     -6.07419787	    -61.20509714	      9.43936768	     -2.83720935	      3.07734047	     -3.00593751	      5.05257244	      1.18671544
      0.92683333	     -2.18383433	     -2.84284217	      1.20771251	     -0.34751106	      0.91209657	      0.36706212	      8.73339939	      9.14836983	     -2.26489608	    -17.82719528	     12.27400453	      2.46478077	      7.98778559	     17.98754338	     -7.59924293	     -6.46078231	    -60.50802558	      9.62745254	     -2.93159883	      2.98410605	     -3.11382822	      4.94796158	      1.45769291
      0.93100000	     -2.11684824	     -2.74103329	      0.90369809	     -0.34286081	      0.91275220	      0.36773189	      8.06832096	      9.10204818	     -1.97272616	    -17.32088021	     12.29711021	      2.59434600	      8.02844842	     18.39410570	     -7.53980346	     -6.86306439	    -59.78231669	      9.79080475	     -3.03555463	      2.89337911	     -3.23203948	      4.83724373	      1.74033613
      0.93516667	     -2.08987555	     -2.64892544	      0.59203489	     -0.33826275	      0.91328026	      0.36840758	      7.46352655	      9.05906050	     -1.67859003	    -16.83802693	     12.30035877	      2.76946227	      8.05459263	     18.84798175	     -7.49508145	     -7.27016287	    -59.04523739	      9.93641343	     -3.16393191	      2.83571829	     -3.32273906	      4.71299869	      1.93079284
      0.93933333	     -1.98362524	     -2.55927654	      0.32195399	     -0.33359303	      0.91390694	      0.36901168	      6.73747919	      9.00900610	     -1.42129899	    -16.28960795	     12.34959908	      2.85758919	      8.10842339	     19.19554507	     -7.43850817	     -7.63097179	    -58.24635818	     10.03337997	     -3.29101911	      2.71781908	     -3.47851722	      4.61350250	      2.34740865
      0.94350000	     -1.93382701	     -2.46549582	      0.00690807	     -0.32896780	      0.91438188	      0.36966722	      6.11082682	      8.94704114	     -1.15671122	    -15.81425887	     12.36861349	      3.01349760	      8.14722101	     19.59110051	     -7.39946079	     -8.05319949	    -57.42447793	     10.11162285	     -3.44222431	      2.63386582	     -3.56617726	      4.52149562	      2.57573466
      0.94766667	     -1.86327130	     -2.38734085	     -0.26547251	     -0.32434972	      0.91483353	      0.37026821	      5.44027034	      8.89517705	     -0.91329066	    -15.28722631	     12.41077967	      3.15780346	      8.20240837	     19.97068193	     -7.35795175	     -8.40925266	    -56.58336464	     10.16694925	     -3.61046480	      2.51803211	     -3.69870866	      4.40863529	      2.90804115
      0.95183333	     -1.81467788	     -2.30778946	     -0.56361507	     -0.31973169	      0.91520379	      0.37087537	      4.81694248	      8.83130339	     -0.68928252	    -14.80922199	     12.42998349	      3.33717100	      8.24522849	     20.35381923	     -7.32938970	     -8.80870436	    -55.70506905	     10.19302364	     -3.78503778	      2.42853113	     -3.78455459	      4.32936492	      3.13496716
      0.95600000	     -1.76171836	     -2.25272003	     -0.83695939	     -0.31510764	      0.91551554	      0.37146873	      4.16970789	      8.79041470	     -0.47393845	    -14.28660750	     12.45080823	      3.49246907	      8.38304111	     20.73751073	     -7.32547736	     -9.17554398	    -54.82238064	     10.22235076	     -3.94282240	      2.15695361	     -3.88409264	      4.24227204	      3.55111197
      0.96016667	     -1.71549996	     -2.17669113	     -1.11144526	     -0.31050058	      0.91578419	      0.37201374	      3.55096383	      8.71358712	     -0.28577683	    -13.80671753	     12.48606087	      3.70024292	      8.42125274	     21.10785479	     -7.28375930	     -9.52915504	    -53.88163262	     10.18181004	     -4.15721675	      2.07989466	     -3.97904029	      4.16477357	      3.67340241
      0.96433333	     -1.66038734	     -2.12053229	     -1.36586886	     -0.30587016	      0.91601054	      0.37253033	      2.90879255	      8.65140236	     -0.12860800	    -13.29752076	     12.51889665	      3.90933442	      8.46418904	     21.46492696	     -7.26045797	     -9.86108773	    -52.92505764	     10.13262091	     -4.37013437	      1.99691099	     -4.07734854	      4.09232702	      3.89686997
      0.96850000	     -1.61001305	     -2.07138645	     -1.60633255	     -0.30123545	      0.91617667	      0.37301336	      2.27126216	      8.59064331	      0.00740552	    -12.78663303	     12.56044119	      4.11954325	      8.51477453	     21.82001027	     -7.23710396	    -10.16900660	    -51.94358290	     10.06819757	     -4.57655880	      1.90366995	     -4.17101900	      4.02913009	      4.14619310
      0.97266667	     -1.56182273	     -2.03413966	     -1.82740316	     -0.29658614	      0.91627927	      0.37346222	      1.62922591	      8.53774152	      0.12693329	    -12.26358004	     12.61594647	      4.33354559	      8.58712301	     22.17382815	     -7.21653310	    -10.44424804	    -50.94596101	      9.99739906	     -4.78099778	      1.77973006	     -4.26302781	      3.96883782	      4.41446698
      0.97683333	     -1.53764010	     -1.99842191	     -2.06457266	     -0.29194131	      0.91630710	      0.37390995	      1.02753385	      8.47953944	      0.23466165	    -11.76582607	     12.61539196	      4.57198128	      8.63417736	     22.53637002	     -7.20735381	    -10.74606849	    -49.91554113	      9.87728894	     -4.96670634	      1.69795849	     -4.31759950	      3.93025653	      4.57973446
      0.98100000	     -1.49783085	     -1.96970468	     -2.27191106	     -0.28727113	      0.91630561	      0.37430123	      0.39497589	      8.42381536	      0.31583361	    -11.24313495	     12.65245623	      4.80460591	      8.68848081	     22.87544912	     -7.18616044	    -10.99796067	    -48.86119609	      9.75560601	     -5.16267027	      1.61018627	     -4.39299818	      3.88914236	      4.78442135
